<svg width="18" height="13" viewBox="0 0 18 13" fill="none" xmlns="http://www.w3.org/2000/svg">
<path d="M17.8116 1.09121C17.6207 0.999327 17.5385 1.17425 17.4275 1.26318C17.3891 1.29204 17.3573 1.32915 17.3249 1.36331C17.0464 1.65544 16.7206 1.84744 16.2951 1.82447C15.6734 1.79031 15.1422 1.98172 14.673 2.44877C14.5733 1.87335 14.2421 1.5294 13.7374 1.30912C13.4733 1.19428 13.2063 1.08002 13.0214 0.830883C12.8924 0.653604 12.857 0.455711 12.7928 0.260763C12.752 0.143559 12.7106 0.0228207 12.5725 0.00279582C12.4231 -0.0201739 12.3643 0.10292 12.3055 0.205989C12.0708 0.627101 11.9796 1.09121 11.9886 1.56061C12.009 2.61722 12.4639 3.45944 13.3671 4.05783C13.4697 4.12674 13.4961 4.19506 13.4637 4.29577C13.4019 4.50191 13.3287 4.70216 13.2645 4.90889C13.2237 5.04082 13.1619 5.06909 13.0178 5.01196C12.5221 4.80876 12.0937 4.5078 11.7156 4.14441C11.0735 3.53424 10.4925 2.86164 9.7676 2.33451C9.59776 2.21142 9.42733 2.09657 9.25149 1.9882C8.51215 1.2838 9.34811 0.705433 9.54195 0.636524C9.74419 0.56467 9.61216 0.318482 8.95804 0.321427C8.30391 0.324372 7.70559 0.539344 6.94284 0.825582C6.83122 0.868577 6.7142 0.899792 6.59357 0.925707C5.90164 0.796134 5.1827 0.767864 4.43195 0.850908C3.01807 1.00522 1.88865 1.66133 1.05869 2.78095C0.0612938 4.12674 -0.173352 5.65629 0.114104 7.25121C0.415963 8.93212 1.29033 10.3238 2.634 11.4123C4.02747 12.5407 5.63218 13.0932 7.46254 12.9872C8.57456 12.9241 9.81201 12.7781 11.2085 11.6184C11.5607 11.7904 11.9298 11.8587 12.5431 11.9105C13.0154 11.9535 13.4703 11.8876 13.822 11.8163C14.3735 11.7014 14.3351 11.2008 14.1359 11.1089C12.7502 10.6331 12.5515 10.4275 12.5515 10.4275C13.3731 9.47397 14.6105 8.48274 15.0948 5.27287C15.1332 5.01785 15.1008 4.85765 15.0948 4.65151C15.0918 4.52547 15.1212 4.47659 15.2677 4.46245C15.6728 4.41651 16.0658 4.30755 16.4265 4.11319C17.4737 3.55191 17.8962 2.62959 17.9958 1.5241C18.0108 1.35447 17.9934 1.18014 17.8116 1.09121ZM8.68558 11.04C7.11928 9.83147 6.35953 9.43333 6.04567 9.45041C5.75221 9.46749 5.80502 9.79672 5.86983 10.0117C5.93705 10.2237 6.02526 10.3698 6.14829 10.5559C6.2335 10.679 6.29231 10.8622 6.06307 11C5.55837 11.3062 4.6816 10.8969 4.64019 10.8769C3.61939 10.2867 2.76602 9.50813 2.16471 8.44269C1.58379 7.4173 1.24653 6.3177 1.19071 5.1433C1.17631 4.86 1.26093 4.75929 1.54839 4.70805C1.92706 4.63914 2.31714 4.62501 2.69521 4.67919C4.29392 4.9083 5.65499 5.60976 6.79581 6.72114C7.44694 7.35428 7.93964 8.10992 8.44734 8.84908C8.98684 9.63358 9.56776 10.381 10.3071 10.9941C10.5682 11.2091 10.7764 11.3722 10.9756 11.4924C10.3749 11.5583 9.37212 11.573 8.68558 11.04ZM9.43633 6.30062C9.43633 6.17458 9.53895 6.07445 9.66798 6.07445C9.69738 6.07445 9.72379 6.08034 9.74719 6.08859C9.7796 6.10037 9.809 6.11745 9.83241 6.14277C9.87322 6.18282 9.89722 6.23995 9.89722 6.30003C9.89722 6.42607 9.7946 6.52619 9.66558 6.52619C9.53655 6.52678 9.43633 6.42666 9.43633 6.30062ZM11.7684 7.47502C11.619 7.53509 11.4689 7.58692 11.3255 7.59222C11.1029 7.60341 10.8592 7.51507 10.7272 7.40611C10.5219 7.23707 10.3749 7.14284 10.3137 6.84777C10.2873 6.72173 10.3017 6.52678 10.3257 6.41546C10.3785 6.17517 10.3197 6.02027 10.1469 5.88009C10.0058 5.76525 9.82701 5.73403 9.63077 5.73403C9.55756 5.73403 9.48974 5.70223 9.43993 5.6769C9.35771 5.63685 9.2905 5.53673 9.35471 5.41363C9.37512 5.37358 9.47474 5.2764 9.49874 5.25873C9.76579 5.10973 10.0737 5.15861 10.3581 5.26992C10.6222 5.37594 10.8214 5.57089 11.1089 5.84535C11.4023 6.17752 11.4551 6.2694 11.622 6.51853C11.754 6.71348 11.874 6.91373 11.9562 7.14284C12.006 7.28596 11.9418 7.40316 11.7684 7.47502Z" fill="#FFC880"/>
</svg>
